<svg xmlns="http://www.w3.org/2000/svg" viewBox="0 0 64 64" role="img" aria-labelledby="title desc">
  <title id="title">Joscha Aaron Schmidt</title>
  <desc id="desc">Niedliche weiße Katze als Website Symbol</desc>
  <rect width="64" height="64" rx="16" fill="#0b0f0d"/>
  <path d="M13 22 17 10l11 8c2-.7 4-1 6-1s4 .3 6 1l11-8 4 12v15c0 10-8 17-19 17h-4c-11 0-19-7-19-17V22Z" fill="#f8fafc"/>
  <path d="M18 15 20 27l9-7Z" fill="#f9a8d4"/>
  <path d="m46 15-2 12-9-7Z" fill="#f9a8d4"/>
  <ellipse cx="25" cy="32" rx="4" ry="5" fill="#0b0f0d"/>
  <ellipse cx="39" cy="32" rx="4" ry="5" fill="#0b0f0d"/>
  <circle cx="26" cy="31" r="1.5" fill="#ffffff"/>
  <circle cx="40" cy="31" r="1.5" fill="#ffffff"/>
  <path d="M30 39q2-2 4 0-2 3-4 0Z" fill="#f472b6"/>
  <path d="M32 41v3M32 44q-3 3-6 1M32 44q3 3 6 1" fill="none" stroke="#0b0f0d" stroke-width="1.5" stroke-linecap="round"/>
  <path d="M19 38 9 36M19 42 8 43M45 38l10-2M45 42l11 1" fill="none" stroke="#94a3b8" stroke-width="1.3" stroke-linecap="round"/>
</svg>
